<svg width="40" height="40" viewBox="0 0 40 40" fill="none" xmlns="http://www.w3.org/2000/svg">
<path d="M11.4286 11L28.5714 29M22.8832 23.0273C22.0421 23.7572 20.9317 24.1383 19.7962 24.0867C18.6607 24.0351 17.5932 23.555 16.8286 22.7522C16.0639 21.9493 15.6647 20.8893 15.7187 19.8055C15.7728 18.7216 16.2757 17.7026 17.1168 16.9727M20.8068 15.9817C21.7179 16.1483 22.5479 16.5925 23.1719 17.2478C23.7959 17.903 24.1804 18.7338 24.2675 19.6155M28.6368 24.2034C30.9725 22.207 32 20 32 20C32 20 28.5714 12.6364 20 12.6364C19.2577 12.6354 18.5167 12.6929 17.7843 12.8082M14.2143 13.925C9.84607 16.0359 8 20 8 20C8 20 11.4286 27.3636 20 27.3636C22.0084 27.3787 23.9917 26.9369 25.7857 26.075" stroke="#909090" stroke-width="2" stroke-linecap="round" stroke-linejoin="round"/>
</svg>
