<svg width="68" height="68" viewBox="0 0 68 68" fill="none" xmlns="http://www.w3.org/2000/svg">
<g filter="url(#filter0_d_2_7)">
<rect x="2" y="1" width="64" height="64" rx="20" fill="url(#paint0_linear_2_7)" shape-rendering="crispEdges"/>
<path d="M32.5 46.5V43.5H44.5V43.5V43.5V32.85C44.5 29.925 43.4813 27.4437 41.4438 25.4062C39.4063 23.3688 36.925 22.35 34 22.35C31.075 22.35 28.5938 23.3688 26.5563 25.4062C24.5188 27.4437 23.5 29.925 23.5 32.85V42H22C21.175 42 20.4688 41.7062 19.8813 41.1187C19.2938 40.5312 19 39.825 19 39V36C19 35.475 19.1313 34.9813 19.3938 34.5188C19.6562 34.0563 20.025 33.6875 20.5 33.4125L20.6125 31.425C20.8125 29.725 21.3062 28.15 22.0938 26.7C22.8813 25.25 23.8688 23.9875 25.0563 22.9125C26.2438 21.8375 27.6063 21 29.1438 20.4C30.6813 19.8 32.3 19.5 34 19.5C35.7 19.5 37.3125 19.8 38.8375 20.4C40.3625 21 41.725 21.8312 42.925 22.8937C44.125 23.9562 45.1125 25.2125 45.8875 26.6625C46.6625 28.1125 47.1625 29.6875 47.3875 31.3875L47.5 33.3375C47.975 33.5625 48.3438 33.9 48.6063 34.35C48.8688 34.8 49 35.275 49 35.775V39.225C49 39.725 48.8688 40.2 48.6063 40.65C48.3438 41.1 47.975 41.4375 47.5 41.6625V43.5C47.5 44.325 47.2062 45.0312 46.6187 45.6187C46.0312 46.2062 45.325 46.5 44.5 46.5H32.5V46.5M29.5 36C29.075 36 28.7187 35.8563 28.4312 35.5688C28.1437 35.2813 28 34.925 28 34.5C28 34.075 28.1437 33.7187 28.4312 33.4312C28.7187 33.1437 29.075 33 29.5 33C29.925 33 30.2813 33.1437 30.5688 33.4312C30.8563 33.7187 31 34.075 31 34.5C31 34.925 30.8563 35.2813 30.5688 35.5688C30.2813 35.8563 29.925 36 29.5 36V36M38.5 36C38.075 36 37.7187 35.8563 37.4312 35.5688C37.1437 35.2813 37 34.925 37 34.5C37 34.075 37.1437 33.7187 37.4312 33.4312C37.7187 33.1437 38.075 33 38.5 33C38.925 33 39.2813 33.1437 39.5688 33.4312C39.8563 33.7187 40 34.075 40 34.5C40 34.925 39.8563 35.2813 39.5688 35.5688C39.2813 35.8563 38.925 36 38.5 36V36M25.0375 33.675C24.8625 31.025 25.6625 28.75 27.4375 26.85C29.2125 24.95 31.425 24 34.075 24C36.3 24 38.2563 24.7063 39.9438 26.1188C41.6313 27.5313 42.65 29.3375 43 31.5375C40.725 31.5125 38.6313 30.9 36.7188 29.7C34.8062 28.5 33.3375 26.875 32.3125 24.825C31.9125 26.825 31.0688 28.6062 29.7812 30.1687C28.4937 31.7312 26.9125 32.9 25.0375 33.675V33.675" fill="#4A72B8"/>
</g>
<defs>
<filter id="filter0_d_2_7" x="0" y="0" width="68" height="68" filterUnits="userSpaceOnUse" color-interpolation-filters="sRGB">
<feFlood flood-opacity="0" result="BackgroundImageFix"/>
<feColorMatrix in="SourceAlpha" type="matrix" values="0 0 0 0 0 0 0 0 0 0 0 0 0 0 0 0 0 0 127 0" result="hardAlpha"/>
<feOffset dy="1"/>
<feGaussianBlur stdDeviation="1"/>
<feComposite in2="hardAlpha" operator="out"/>
<feColorMatrix type="matrix" values="0 0 0 0 0 0 0 0 0 0 0 0 0 0 0 0 0 0 0.05 0"/>
<feBlend mode="normal" in2="BackgroundImageFix" result="effect1_dropShadow_2_7"/>
<feBlend mode="normal" in="SourceGraphic" in2="effect1_dropShadow_2_7" result="shape"/>
</filter>
<linearGradient id="paint0_linear_2_7" x1="2" y1="1" x2="66" y2="65" gradientUnits="userSpaceOnUse">
<stop stop-color="#E0EAFC"/>
<stop offset="1" stop-color="#CFDEF3"/>
</linearGradient>
</defs>
</svg>
